<svg width="122" height="168" viewBox="0 0 122 168" fill="none" xmlns="http://www.w3.org/2000/svg">
<path fill-rule="evenodd" clip-rule="evenodd" d="M109.894 96.533C117.212 86.4982 121.531 74.1361 121.531 60.7653C121.531 27.2056 94.3251 0 60.7653 0C27.2056 0 0 27.2056 0 60.7653C0 74.0647 4.2725 86.3662 11.5198 96.3721L49.4132 160.538C54.8841 169.802 68.3251 169.689 73.6403 160.335L109.894 96.533ZM60.4194 102.568C82.7926 102.568 100.93 84.4312 100.93 62.058C100.93 39.6849 82.7926 21.5478 60.4194 21.5478C38.0462 21.5478 19.9092 39.6849 19.9092 62.058C19.9092 84.4312 38.0462 102.568 60.4194 102.568Z" fill="url(#paint0_linear_65_223)"/>
<path fill-rule="evenodd" clip-rule="evenodd" d="M60.3213 109.464C86.7407 109.464 108.158 88.0469 108.158 61.6275C108.158 35.2082 86.7407 13.791 60.3213 13.791C33.9019 13.791 12.4847 35.2082 12.4847 61.6275C12.4847 88.0469 33.9019 109.464 60.3213 109.464ZM60.7523 102.569C83.1255 102.569 101.263 84.4317 101.263 62.0586C101.263 39.6854 83.1255 21.5483 60.7523 21.5483C38.3791 21.5483 20.2421 39.6854 20.2421 62.0586C20.2421 84.4317 38.3791 102.569 60.7523 102.569Z" fill="black" fill-opacity="0.1"/>
<circle cx="61" cy="62" r="41" fill="#0F0D37"/>
<g filter="url(#filter0_d_65_223)">
<path d="M60.0734 63.7666C59.9812 63.8008 59.8901 63.8392 59.8009 63.8828L45.3283 70.9521C42.769 72.2018 40.0718 69.5158 41.3107 66.9512L58.4161 31.541C58.7825 30.7828 59.3888 30.2797 60.0734 30.0303V63.7666ZM62.0734 30C62.7939 30.2373 63.4364 30.7505 63.8185 31.541L80.9249 66.9512C82.1638 69.5159 79.4657 72.2022 76.9064 70.9521L62.4347 63.8828C62.317 63.8253 62.1959 63.7765 62.0734 63.7354V30Z" fill="white"/>
</g>
<path d="M54.96 80.1061V87.4901H52.0681V80.1061H49.8505V77.1288H57.1706V80.1061H54.96Z" fill="white"/>
<path d="M61.0919 79.8469V82.8835C60.9042 82.7724 60.7374 82.7131 60.5844 82.7131C60.0978 82.7131 59.8545 83.1057 59.8545 83.8981V87.4901H57.192V83.3501C57.192 82.2539 57.47 81.3874 58.0331 80.7357C58.5962 80.0839 59.3401 79.7581 60.2785 79.7581C60.4871 79.7655 60.7582 79.7877 61.0919 79.8469Z" fill="white"/>
<path d="M66.13 84.6536V87.5938C65.9122 87.6309 65.7084 87.6531 65.5257 87.6531C64.4434 87.6531 63.5439 87.2754 62.8271 86.5273C62.1103 85.7793 61.7449 84.8387 61.7449 83.713C61.7449 82.6168 62.1103 81.6837 62.8341 80.9208C63.565 80.158 64.4434 79.7729 65.4905 79.7729C66.6501 79.7729 67.5707 80.1284 68.2383 80.8468C68.9059 81.5652 69.2432 82.5428 69.2432 83.7796V87.4901H66.5517V83.9796C66.5517 83.5796 66.4603 83.2612 66.2776 83.0242C66.0949 82.7872 65.8419 82.6687 65.5327 82.6687C65.2516 82.6687 65.0056 82.7798 64.7948 82.9946C64.591 83.2093 64.4856 83.4686 64.4856 83.7722C64.4856 84.0833 64.5769 84.3425 64.7667 84.5499C64.9564 84.7498 65.1883 84.8535 65.4765 84.8535C65.7084 84.8461 65.9262 84.7795 66.13 84.6536Z" fill="white"/>
<path d="M74.8146 84.0092L77.4563 83.9055C77.3798 85.0017 76.9975 85.8978 76.3093 86.6014C75.621 87.305 74.7799 87.6531 73.7927 87.6531C72.75 87.6531 71.8671 87.268 71.1441 86.4903C70.4211 85.7127 70.0736 84.7647 70.0736 83.6389C70.0736 82.5724 70.435 81.6615 71.165 80.8986C71.8949 80.1432 72.7639 79.7581 73.7788 79.7581C74.6687 79.7581 75.4473 80.0543 76.1285 80.6542C76.8098 81.2541 77.2339 82.0095 77.3937 82.9353L74.6965 83.039C74.4671 82.7131 74.1681 82.5502 73.8136 82.5502C73.5077 82.5502 73.2575 82.6539 73.0628 82.8687C72.8682 83.0834 72.7708 83.3501 72.7708 83.6759C72.7708 84.0018 72.8751 84.2833 73.0837 84.5054C73.2922 84.7276 73.5494 84.8387 73.8553 84.8387C74.3072 84.8461 74.6269 84.5647 74.8146 84.0092Z" fill="white"/>
<path d="M81.2867 77.1288V87.4901H78.6242V77.1288H81.2867ZM85.3674 79.921L84.0605 82.6761L86 87.4901H83.0525L81.384 82.5502L82.5936 79.921H85.3674Z" fill="white"/>
<path d="M39.8475 81.009V83.6778H39.0098V87.5104H36V77.3914H39.0098V81.009H39.8475ZM43.3687 77.3914V87.5104H40.359V77.3914H43.3687Z" fill="white"/>
<path d="M45.2775 80.3053H48.1081V87.5104H45.2775V80.3053Z" fill="white"/>
<path d="M46.482 76.1465C46.5782 75.9519 46.8554 75.9509 46.9529 76.1449L48.4356 79.094C48.5433 79.3082 48.3317 79.543 48.1075 79.4583L46.8543 78.9848C46.7952 78.9624 46.73 78.9621 46.6706 78.9839L45.3456 79.4699C45.1225 79.5518 44.9138 79.3194 45.0191 79.1063L46.482 76.1465Z" fill="white"/>
<defs>
<filter id="filter0_d_65_223" x="27" y="20" width="68.2355" height="69.2686" filterUnits="userSpaceOnUse" color-interpolation-filters="sRGB">
<feFlood flood-opacity="0" result="BackgroundImageFix"/>
<feColorMatrix in="SourceAlpha" type="matrix" values="0 0 0 0 0 0 0 0 0 0 0 0 0 0 0 0 0 0 127 0" result="hardAlpha"/>
<feOffset dy="4"/>
<feGaussianBlur stdDeviation="7"/>
<feComposite in2="hardAlpha" operator="out"/>
<feColorMatrix type="matrix" values="0 0 0 0 0 0 0 0 0 0 0 0 0 0 0 0 0 0 0.25 0"/>
<feBlend mode="normal" in2="BackgroundImageFix" result="effect1_dropShadow_65_223"/>
<feBlend mode="normal" in="SourceGraphic" in2="effect1_dropShadow_65_223" result="shape"/>
</filter>
<linearGradient id="paint0_linear_65_223" x1="60.446" y1="-1.24288e-09" x2="60.4206" y2="143.28" gradientUnits="userSpaceOnUse">
<stop stop-color="#01A883"/>
<stop offset="1" stop-color="#1072D6"/>
</linearGradient>
</defs>
</svg>
