<svg width="30" height="30" viewBox="0 0 30 30" fill="none" xmlns="http://www.w3.org/2000/svg">
<circle cx="15" cy="15" r="15" fill="url(#paint0_linear_3522_2)"/>
<g clip-path="url(#clip0_3522_2)">
<path d="M15 6.80078C17.6719 6.80078 17.9883 6.8125 19.0391 6.85937C20.0156 6.90234 20.543 7.06641 20.8945 7.20313C21.3594 7.38281 21.6953 7.60156 22.043 7.94922C22.3945 8.30078 22.6094 8.63281 22.7891 9.09766C22.9258 9.44922 23.0898 9.98047 23.1328 10.9531C23.1797 12.0078 23.1914 12.3242 23.1914 14.9922C23.1914 17.6641 23.1797 17.9805 23.1328 19.0313C23.0898 20.0078 22.9258 20.5352 22.7891 20.8867C22.6094 21.3516 22.3906 21.6875 22.043 22.0352C21.6914 22.3867 21.3594 22.6016 20.8945 22.7813C20.543 22.918 20.0117 23.082 19.0391 23.125C17.9844 23.1719 17.668 23.1836 15 23.1836C12.3281 23.1836 12.0117 23.1719 10.9609 23.125C9.98438 23.082 9.45703 22.918 9.10547 22.7813C8.64063 22.6016 8.30469 22.3828 7.95703 22.0352C7.60547 21.6836 7.39063 21.3516 7.21094 20.8867C7.07422 20.5352 6.91016 20.0039 6.86719 19.0313C6.82031 17.9766 6.80859 17.6602 6.80859 14.9922C6.80859 12.3203 6.82031 12.0039 6.86719 10.9531C6.91016 9.97656 7.07422 9.44922 7.21094 9.09766C7.39063 8.63281 7.60938 8.29688 7.95703 7.94922C8.30859 7.59766 8.64063 7.38281 9.10547 7.20313C9.45703 7.06641 9.98828 6.90234 10.9609 6.85937C12.0117 6.8125 12.3281 6.80078 15 6.80078ZM15 5C12.2852 5 11.9453 5.01172 10.8789 5.05859C9.81641 5.10547 9.08594 5.27734 8.45313 5.52344C7.79297 5.78125 7.23438 6.12109 6.67969 6.67969C6.12109 7.23438 5.78125 7.79297 5.52344 8.44922C5.27734 9.08594 5.10547 9.8125 5.05859 10.875C5.01172 11.9453 5 12.2852 5 15C5 17.7148 5.01172 18.0547 5.05859 19.1211C5.10547 20.1836 5.27734 20.9141 5.52344 21.5469C5.78125 22.207 6.12109 22.7656 6.67969 23.3203C7.23438 23.875 7.79297 24.2188 8.44922 24.4727C9.08594 24.7188 9.8125 24.8906 10.875 24.9375C11.9414 24.9844 12.2813 24.9961 14.9961 24.9961C17.7109 24.9961 18.0508 24.9844 19.1172 24.9375C20.1797 24.8906 20.9102 24.7188 21.543 24.4727C22.1992 24.2188 22.7578 23.875 23.3125 23.3203C23.8672 22.7656 24.2109 22.207 24.4648 21.5508C24.7109 20.9141 24.8828 20.1875 24.9297 19.125C24.9766 18.0586 24.9883 17.7188 24.9883 15.0039C24.9883 12.2891 24.9766 11.9492 24.9297 10.8828C24.8828 9.82031 24.7109 9.08984 24.4648 8.45703C24.2188 7.79297 23.8789 7.23438 23.3203 6.67969C22.7656 6.125 22.207 5.78125 21.5508 5.52734C20.9141 5.28125 20.1875 5.10938 19.125 5.0625C18.0547 5.01172 17.7148 5 15 5Z" fill="white"/>
<path d="M15 9.86328C12.1641 9.86328 9.86328 12.1641 9.86328 15C9.86328 17.8359 12.1641 20.1367 15 20.1367C17.8359 20.1367 20.1367 17.8359 20.1367 15C20.1367 12.1641 17.8359 9.86328 15 9.86328ZM15 18.332C13.1602 18.332 11.668 16.8398 11.668 15C11.668 13.1602 13.1602 11.668 15 11.668C16.8398 11.668 18.332 13.1602 18.332 15C18.332 16.8398 16.8398 18.332 15 18.332Z" fill="white"/>
<path d="M21.5391 9.6601C21.5391 10.3242 21 10.8593 20.3398 10.8593C19.6758 10.8593 19.1406 10.3203 19.1406 9.6601C19.1406 8.99603 19.6797 8.46088 20.3398 8.46088C21 8.46088 21.5391 8.99994 21.5391 9.6601Z" fill="white"/>
</g>
<defs>
<linearGradient id="paint0_linear_3522_2" x1="5.5" y1="4.36852e-07" x2="27" y2="26.5" gradientUnits="userSpaceOnUse">
<stop stop-color="#FEDA75"/>
<stop offset="0.25" stop-color="#FA7E1E"/>
<stop offset="0.5" stop-color="#D62976"/>
<stop offset="0.75" stop-color="#962FBF"/>
<stop offset="1" stop-color="#4F5BD5"/>
</linearGradient>
<clipPath id="clip0_3522_2">
<rect width="20" height="20" fill="white" transform="translate(5 5)"/>
</clipPath>
</defs>
</svg>
