<svg width="302" height="302" viewBox="0 0 302 302" fill="none" xmlns="http://www.w3.org/2000/svg">
<g filter="url(#filter0_d_77_33)">
<rect x="4" width="294" height="298" rx="20" fill="url(#paint0_linear_77_33)"/>
</g>
<g filter="url(#filter1_d_77_33)">
<path fill-rule="evenodd" clip-rule="evenodd" d="M149 34.2169C146.19 34.8236 143.609 36.6302 142.156 39.6365L77.7292 172.985C73.5988 181.534 82.5902 190.488 91.1217 186.321L146.772 159.143C147.489 158.793 148.237 158.534 149 158.365L149 34.2169ZM153 158.299C153.874 158.463 154.732 158.744 155.549 159.143L211.199 186.321C219.73 190.488 228.722 181.534 224.591 172.985L160.164 39.6365C158.657 36.5162 155.933 34.6884 153 34.1531L153 158.299Z" fill="white"/>
</g>
<g clip-path="url(#clip0_77_33)">
<path d="M125.155 225.887V257.103H112.929V225.887H103.554V213.3H134.501V225.887H125.155Z" fill="white"/>
<path d="M151.078 224.791V237.628C150.285 237.159 149.579 236.908 148.933 236.908C146.876 236.908 145.847 238.568 145.847 241.918V257.103H134.591V239.601C134.591 234.967 135.767 231.304 138.147 228.548C140.528 225.793 143.672 224.415 147.64 224.415C148.521 224.447 149.668 224.541 151.078 224.791Z" fill="white"/>
<path d="M172.377 245.111V257.542C171.456 257.698 170.595 257.792 169.822 257.792C165.247 257.792 161.444 256.195 158.414 253.033C155.384 249.871 153.839 245.894 153.839 241.135C153.839 236.501 155.384 232.556 158.444 229.331C161.533 226.106 165.247 224.478 169.674 224.478C174.576 224.478 178.468 225.981 181.29 229.018C184.113 232.055 185.539 236.188 185.539 241.417V257.103H174.16V242.262C174.16 240.571 173.774 239.225 173.001 238.223C172.229 237.221 171.159 236.72 169.852 236.72C168.664 236.72 167.624 237.19 166.733 238.098C165.871 239.006 165.425 240.102 165.425 241.385C165.425 242.7 165.812 243.796 166.614 244.673C167.416 245.518 168.396 245.957 169.614 245.957C170.595 245.925 171.516 245.644 172.377 245.111Z" fill="white"/>
<path d="M209.092 242.387L220.26 241.949C219.937 246.583 218.321 250.372 215.411 253.346C212.502 256.321 208.946 257.792 204.772 257.792C200.364 257.792 196.631 256.164 193.575 252.877C190.519 249.589 189.049 245.581 189.049 240.822C189.049 236.313 190.577 232.462 193.663 229.237C196.749 226.043 200.423 224.415 204.713 224.415C208.475 224.415 211.767 225.668 214.647 228.204C217.527 230.74 219.32 233.934 219.996 237.847L208.593 238.286C207.623 236.908 206.359 236.219 204.86 236.219C203.567 236.219 202.509 236.658 201.686 237.566C200.864 238.474 200.452 239.601 200.452 240.979C200.452 242.356 200.893 243.546 201.775 244.485C202.656 245.425 203.744 245.894 205.037 245.894C206.947 245.926 208.299 244.736 209.092 242.387Z" fill="white"/>
<path d="M236.454 213.3V257.103H225.198V213.3H236.454ZM253.705 225.104L248.18 236.752L256.38 257.103H243.919L236.865 236.219L241.979 225.104H253.705Z" fill="white"/>
</g>
<path d="M61.2655 229.704V240.987H57.7241V257.189H45V214.41H57.7241V229.704H61.2655ZM76.152 214.41V257.189H63.428V214.41H76.152Z" fill="white"/>
<rect x="84.2213" y="226.729" width="11.9666" height="30.4604" fill="white"/>
<path d="M89.4133 208.945C89.7789 208.206 90.8326 208.202 91.2033 208.939L97.702 221.865C98.1112 222.68 97.3074 223.572 96.4551 223.25L90.8483 221.132C90.6236 221.047 90.3759 221.046 90.1504 221.128L84.2454 223.294C83.3975 223.605 82.6044 222.722 83.0045 221.913L89.4133 208.945Z" fill="white"/>
<defs>
<filter id="filter0_d_77_33" x="0" y="-4" width="302" height="306" filterUnits="userSpaceOnUse" color-interpolation-filters="sRGB">
<feFlood flood-opacity="0" result="BackgroundImageFix"/>
<feColorMatrix in="SourceAlpha" type="matrix" values="0 0 0 0 0 0 0 0 0 0 0 0 0 0 0 0 0 0 127 0" result="hardAlpha"/>
<feOffset/>
<feGaussianBlur stdDeviation="2"/>
<feComposite in2="hardAlpha" operator="out"/>
<feColorMatrix type="matrix" values="0 0 0 0 0 0 0 0 0 0 0 0 0 0 0 0 0 0 0.25 0"/>
<feBlend mode="normal" in2="BackgroundImageFix" result="effect1_dropShadow_77_33"/>
<feBlend mode="normal" in="SourceGraphic" in2="effect1_dropShadow_77_33" result="shape"/>
</filter>
<filter id="filter1_d_77_33" x="62.6934" y="24.1531" width="176.934" height="181.223" filterUnits="userSpaceOnUse" color-interpolation-filters="sRGB">
<feFlood flood-opacity="0" result="BackgroundImageFix"/>
<feColorMatrix in="SourceAlpha" type="matrix" values="0 0 0 0 0 0 0 0 0 0 0 0 0 0 0 0 0 0 127 0" result="hardAlpha"/>
<feOffset dy="4"/>
<feGaussianBlur stdDeviation="7"/>
<feComposite in2="hardAlpha" operator="out"/>
<feColorMatrix type="matrix" values="0 0 0 0 0 0 0 0 0 0 0 0 0 0 0 0 0 0 0.25 0"/>
<feBlend mode="normal" in2="BackgroundImageFix" result="effect1_dropShadow_77_33"/>
<feBlend mode="normal" in="SourceGraphic" in2="effect1_dropShadow_77_33" result="shape"/>
</filter>
<linearGradient id="paint0_linear_77_33" x1="9" y1="10" x2="290.571" y2="291.429" gradientUnits="userSpaceOnUse">
<stop stop-color="#01A586"/>
<stop offset="1" stop-color="#0C7FC3"/>
</linearGradient>
<clipPath id="clip0_77_33">
<rect width="156.38" height="44.4609" fill="white" transform="translate(100 213.3)"/>
</clipPath>
</defs>
</svg>
