<svg width="30" height="30" viewBox="0 0 30 30" fill="none" xmlns="http://www.w3.org/2000/svg">
<circle cx="15" cy="15" r="15" fill="#25D366"/>
<path d="M5.52637 24.4737L6.85821 19.6081C6.03637 18.1839 5.60453 16.5695 5.60531 14.9139C5.60768 9.73815 9.81953 5.52631 14.9945 5.52631C17.5058 5.5271 19.8632 6.50525 21.6364 8.27999C23.4087 10.0547 24.3845 12.4137 24.3837 14.9226C24.3814 20.0992 20.1695 24.311 14.9945 24.311C13.4235 24.3103 11.8753 23.9163 10.504 23.1679L5.52637 24.4737ZM10.7345 21.4681C12.0577 22.2537 13.3208 22.7242 14.9914 22.725C19.2924 22.725 22.7961 19.2245 22.7985 14.921C22.8001 10.6089 19.3129 7.11315 14.9977 7.11157C10.6935 7.11157 7.19216 10.6121 7.19058 14.9147C7.18979 16.6713 7.70453 17.9866 8.569 19.3626L7.78031 22.2426L10.7345 21.4681ZM19.7243 17.1545C19.6658 17.0566 19.5095 16.9981 19.2743 16.8805C19.0398 16.7629 17.8864 16.1953 17.6708 16.1171C17.4561 16.0389 17.2998 15.9995 17.1427 16.2347C16.9864 16.4692 16.5364 16.9981 16.3998 17.1545C16.2632 17.3108 16.1258 17.3305 15.8914 17.2129C15.6569 17.0953 14.9006 16.8481 14.0045 16.0484C13.3074 15.4263 12.8361 14.6581 12.6995 14.4229C12.5629 14.1884 12.6853 14.0613 12.8022 13.9445C12.9079 13.8395 13.0366 13.6705 13.1543 13.5331C13.2735 13.3974 13.3122 13.2995 13.3911 13.1424C13.4693 12.986 13.4306 12.8487 13.3714 12.731C13.3122 12.6142 12.8432 11.4592 12.6482 10.9895C12.4572 10.5324 12.2637 10.5939 12.1201 10.5868L11.6701 10.5789C11.5137 10.5789 11.2595 10.6374 11.0448 10.8726C10.8301 11.1079 10.2237 11.6747 10.2237 12.8297C10.2237 13.9847 11.0645 15.1003 11.1814 15.2566C11.299 15.4129 12.8353 17.7829 15.1887 18.7989C15.7485 19.0405 16.1858 19.185 16.5261 19.2931C17.0882 19.4716 17.5998 19.4463 18.004 19.3863C18.4548 19.3192 19.3919 18.8187 19.5877 18.2708C19.7835 17.7221 19.7835 17.2524 19.7243 17.1545Z" fill="white"/>
</svg>
